<svg width="24" height="24" viewBox="0 0 24 24" fill="none" xmlns="http://www.w3.org/2000/svg">
<circle cx="12" cy="12" r="12" fill="#2775CA"/>
<path d="M12 2C6.48 2 2 6.48 2 12s4.48 10 10 10 10-4.48 10-10S17.52 2 12 2zm-1 17.93c-3.94-.49-7-3.85-7-7.93 0-.62.08-1.21.21-1.79L9 15v1c0 1.1.9 2 2 2v1.93zm6.9-2.54c-.26-.81-1-1.39-1.9-1.39h-1v-3c0-.55-.45-1-1-1s-1 .45-1 1v3h-1c-1.1 0-2 .9-2 2s.9 2 2 2h1v1c0 .55.45 1 1 1s1-.45 1-1v-1h1c.41 0 .79-.17 1.07-.46.28-.29.43-.68.43-1.11 0-.43-.15-.82-.43-1.11z" fill="white"/>
</svg>
